<?xml version="1.0" encoding="utf-8"?>
<!-- Generator: Adobe Illustrator 16.0.0, SVG Export Plug-In . SVG Version: 6.00 Build 0)  -->
<!DOCTYPE svg PUBLIC "-//W3C//DTD SVG 1.1//EN" "http://www.w3.org/Graphics/SVG/1.1/DTD/svg11.dtd">
<svg version="1.1" id="Layer_1" xmlns="http://www.w3.org/2000/svg" xmlns:xlink="http://www.w3.org/1999/xlink" x="0px" y="0px"
	 width="115px" height="23.493px" viewBox="363.445 69.307 115 23.493" enable-background="new 363.445 69.307 115 23.493"
	 xml:space="preserve">
<g id="Layer_1_1_">
	<rect x="363.869" y="74.124" fill="none" width="114.402" height="18.676"/>
	<text transform="matrix(1 0 0 1 367.1433 89.177)" fill="#FFFFFF" font-family="'HelveticaNeue-UltraLight'" font-size="21.0852">BLO</text>
	<text transform="matrix(1 0 0 1 405.3699 89.177)" fill="#FFFFFF" font-family="'HelveticaNeue-UltraLight'" font-size="21.0852">C</text>
	<text transform="matrix(1 0 0 1 420.2351 89.177)" fill="#FFFFFF" font-family="'HelveticaNeue-UltraLight'" font-size="21.0852">I</text>
	<text transform="matrix(1 0 0 1 423.7771 89.177)" fill="#FFFFFF" font-family="'HelveticaNeue-UltraLight'" font-size="21.0852">T</text>
	<text transform="matrix(1 0 0 1 434.3201 89.177)" fill="#FFFFFF" font-family="'HelveticaNeue-Bold'" font-size="21.0852">O</text>
	<text transform="matrix(1 0 0 1 450.7244 89.177)" fill="#FFFFFF" font-family="'HelveticaNeue-Bold'" font-size="21.0852">FF</text>
	<path fill="#FFFFFF" d="M449.05,78.726c-0.338-0.963-0.822-1.803-1.455-2.52c-0.634-0.717-1.406-1.279-2.319-1.687
		c-0.914-0.407-1.953-0.611-3.121-0.611c-1.151,0-2.189,0.204-3.109,0.611c-0.921,0.408-1.697,0.97-2.33,1.687
		s-1.117,1.557-1.454,2.52c-0.338,0.963-0.508,2.006-0.508,3.131c0,1.097,0.17,2.119,0.508,3.067
		c0.337,0.95,0.821,1.776,1.454,2.479s1.409,1.254,2.33,1.654c0.92,0.4,1.958,0.602,3.109,0.602c1.168,0,2.207-0.2,3.121-0.602
		c0.913-0.4,1.686-0.952,2.319-1.654c0.633-0.702,1.117-1.528,1.455-2.479c0.338-0.948,0.505-1.971,0.505-3.067
		C449.554,80.732,449.385,79.689,449.05,78.726z"/>
	
		<linearGradient id="SVGID_1_" gradientUnits="userSpaceOnUse" x1="409.6335" y1="69.8909" x2="428.8196" y2="83.5886" gradientTransform="matrix(1 0 0 -1 24.9448 156.2583)">
		<stop  offset="0" style="stop-color:#D7EEF7"/>
		<stop  offset="0.021" style="stop-color:#D2EBF3"/>
		<stop  offset="0.1041" style="stop-color:#C2E3E7"/>
		<stop  offset="0.1897" style="stop-color:#B7DFE0"/>
		<stop  offset="0.2809" style="stop-color:#B3DDDD"/>
		<stop  offset="0.6685" style="stop-color:#3FBCEE"/>
		<stop  offset="0.8876" style="stop-color:#386FB5"/>
		<stop  offset="1" style="stop-color:#365BA6"/>
	</linearGradient>
	<path fill="url(#SVGID_1_)" d="M441.888,81.917c0.65-0.981,1.291-1.971,1.954-2.945c1.707-2.505,3.411-5.015,5.144-7.503
		c1.046-1.502,2.587-2.091,4.356-2.161c0.202-0.008,0.409,0.128,0.615,0.198c-0.092,0.176-0.154,0.379-0.281,0.523
		c-3.815,4.308-7.217,8.917-10.124,13.886c-0.203,0.348-0.367,0.716-0.57,1.064c-0.5,0.859-1.199,1.382-2.25,1.339
		c-1.027-0.043-1.625-0.651-1.93-1.532c-0.409-1.184-0.754-2.395-1.056-3.61c-0.066-0.267,0.084-0.681,0.277-0.898
		c0.309-0.342,0.707-0.638,1.121-0.842c0.945-0.464,1.371-0.261,1.745,0.711c0.224,0.585,0.471,1.162,0.705,1.742
		C441.694,81.9,441.792,81.908,441.888,81.917z"/>
</g>
<g id="Layer_2">
</g>
</svg>
