<?xml version="1.0" encoding="utf-8"?>
<!-- Generator: Adobe Illustrator 16.0.0, SVG Export Plug-In . SVG Version: 6.00 Build 0)  -->
<!DOCTYPE svg PUBLIC "-//W3C//DTD SVG 1.1//EN" "http://www.w3.org/Graphics/SVG/1.1/DTD/svg11.dtd">
<svg version="1.1" xmlns="http://www.w3.org/2000/svg" xmlns:xlink="http://www.w3.org/1999/xlink" x="0px" y="0px"
	 width="841.89px" height="164.899px" viewBox="0 0 841.89 164.899" enable-background="new 0 0 841.89 164.899"
	 xml:space="preserve">
<g id="Layer_1">
	<rect x="19.445" y="33.81" fill="none" width="803" height="131.09"/>
	<text transform="matrix(1 0 0 1 42.4395 139.4805)"><tspan x="0" y="0" fill="#FFFFFF" font-family="'HelveticaNeue-UltraLight'" font-size="148">BLO</tspan><tspan x="268.32" y="0" fill="#FFFFFF" font-family="'HelveticaNeue-UltraLight'" font-size="148" letter-spacing="2">C</tspan><tspan x="372.66" y="0" fill="#FFFFFF" font-family="'HelveticaNeue-UltraLight'" font-size="148" letter-spacing="5">I</tspan><tspan x="397.521" y="0" fill="#FFFFFF" font-family="'HelveticaNeue-UltraLight'" font-size="148">T</tspan><tspan x="471.521" y="0" fill="#FFFFFF" font-family="'HelveticaNeue-Bold'" font-size="148">O</tspan><tspan x="586.666" y="0" fill="#FFFFFF" font-family="'HelveticaNeue-Bold'" font-size="148" letter-spacing="-5">FF</tspan></text>
	<path fill="#FFFFFF" d="M617.34,66.11c-2.368-6.758-5.772-12.654-10.213-17.687c-4.439-5.032-9.867-8.978-16.279-11.84
		c-6.415-2.86-13.715-4.292-21.904-4.292c-8.092,0-15.369,1.432-21.83,4.292c-6.463,2.862-11.914,6.808-16.354,11.84
		s-7.844,10.929-10.213,17.687c-2.367,6.76-3.551,14.085-3.551,21.978c0,7.696,1.184,14.874,3.551,21.534
		c2.369,6.66,5.773,12.457,10.213,17.391s9.891,8.805,16.354,11.617c6.461,2.812,13.738,4.219,21.83,4.219
		c8.189,0,15.489-1.406,21.904-4.219c6.412-2.812,11.84-6.684,16.279-11.617c4.44-4.934,7.845-10.73,10.213-17.391
		c2.367-6.66,3.551-13.838,3.551-21.534C620.891,80.195,619.707,72.87,617.34,66.11z"/>
	<linearGradient id="SVGID_1_" gradientUnits="userSpaceOnUse" x1="515.7695" y1="119.75" x2="650.4393" y2="23.604">
		<stop  offset="0" style="stop-color:#D7EEF7"/>
		<stop  offset="0.021" style="stop-color:#D2EBF3"/>
		<stop  offset="0.1041" style="stop-color:#C2E3E7"/>
		<stop  offset="0.1897" style="stop-color:#B7DFE0"/>
		<stop  offset="0.2809" style="stop-color:#B3DDDD"/>
		<stop  offset="0.6685" style="stop-color:#3FBCEE"/>
		<stop  offset="0.8876" style="stop-color:#386FB5"/>
		<stop  offset="1" style="stop-color:#365BA6"/>
	</linearGradient>
	<path fill-rule="evenodd" clip-rule="evenodd" fill="url(#SVGID_1_)" d="M567.07,88.515c4.57-6.893,9.068-13.834,13.724-20.668
		c11.984-17.591,23.936-35.207,36.103-52.671c7.346-10.543,18.15-14.678,30.57-15.173c1.421-0.057,2.882,0.903,4.324,1.391
		c-0.646,1.234-1.073,2.662-1.969,3.673c-26.782,30.236-50.652,62.591-71.064,97.467c-1.427,2.438-2.587,5.032-4.008,7.473
		c-3.514,6.033-8.415,9.705-15.795,9.396c-7.199-0.301-11.4-4.566-13.541-10.748c-2.877-8.312-5.294-16.806-7.411-25.344
		c-0.464-1.873,0.591-4.777,1.957-6.299c2.156-2.402,4.95-4.478,7.86-5.907c6.635-3.259,9.632-1.83,12.244,4.987
		c1.574,4.107,3.303,8.154,4.962,12.228C565.708,88.385,566.389,88.45,567.07,88.515z"/>
</g>
<g id="Layer_2">
</g>
</svg>
